#!OML:ASF F:\VICON\USERDATA\INSTALL\rory3\rory3.ASF
:FULLY-SPECIFIED
:DEGREES
31
root -5.49312 16.5985 17.4039 192.142 -32.6749 -180.979
lowerback -6.10594 5.72515 2.60705
upperback -5.47069 7.21781 -0.308797
thorax -1.88622 3.39934 -1.42444
lowerneck -4.4937 -10.6578 -17.1882
upperneck 29.2991 -19.9739 13.3505
head 13.8324 -10.3282 4.94787
rclavicle 5.03919e-014 5.56597e-015
rhumerus 3.75384 0.924105 -34.7386
rradius 46.3984
rwrist 19.5041
rhand -34.1018 -55.2099
rfingers 7.12502
rthumb -7.27785 -85.0648
lclavicle 5.03919e-014 5.56597e-015
lhumerus -45.9869 20.6387 -6.39056
lradius 39.3927
lwrist 29.8339
lhand -44.1264 -38.535
lfingers 7.12502
lthumb -16.9429 -9.25404
rfemur -35.6058 7.51417 1.65715
rtibia 39.1396
rfoot -14.5257 -20.1071
rtoes -20.9034
lfemur -25.8738 -6.94504 -15.9645
ltibia 41.3066
lfoot -30.8814 10.7815
ltoes -19.0873
32
root -5.50176 16.6004 17.3745 192.229 -31.6826 -181.15
lowerback -5.86096 5.76204 2.49991
upperback -5.33729 7.28915 -0.143909
thorax -1.91418 3.44577 -1.21283
lowerneck -4.37596 -10.7052 -17.1091
upperneck 29.2242 -20.0423 13.1958
head 13.7554 -10.3724 4.86585
rclavicle -8.95525e-014 -9.54166e-015
rhumerus 3.59308 0.802409 -35.2574
rradius 46.066
rwrist 19.1763
rhand -33.2001 -54.1566
rfingers 7.12502
rthumb -6.40741 -84.0397
lclavicle -8.95525e-014 -9.54166e-015
lhumerus -45.4433 20.35 -6.75671
lradius 39.7231
lwrist 29.833
lhand -44.5433 -39.018
lfingers 7.12502
lthumb -17.3442 -9.77189
rfemur -35.9219 7.60379 1.49399
rtibia 39.1016
rfoot -13.4696 -19.2722
rtoes -21.1666
lfemur -25.4484 -6.08913 -16.2874
ltibia 41.039
lfoot -30.1165 9.15684
ltoes -16.3632
33
root -5.51131 16.607 17.3451 192.406 -30.6899 -181.297
lowerback -5.78055 5.76574 2.38208
upperback -5.14373 7.31015 0.080866
thorax -1.8005 3.47038 -0.917017
lowerneck -4.54617 -10.7553 -17.1072
upperneck 29.374 -20.0919 12.9858
head 13.8369 -10.4051 4.76044
rclavicle 8.79374e-014 3.10104e-014
rhumerus 3.61547 0.816189 -35.6929
rradius 45.7149
rwrist 19.0857
rhand -32.8303 -53.219
rfingers 7.12502
rthumb -6.05034 -83.1126
lclavicle 8.79374e-014 3.10104e-014
lhumerus -45.1011 20.2761 -7.255
lradius 39.8901
lwrist 29.4937
lhand -44.5494 -38.1892
lfingers 7.12502
lthumb -17.35 -8.94362
rfemur -36.3211 7.7298 1.31455
rtibia 39.0694
rfoot -13.0389 -18.9537
rtoes -23.0532
lfemur -25.2301 -5.24426 -16.5937
ltibia 40.9926
lfoot -29.4738 8.08857
ltoes -12.842
34
root -5.52171 16.6086 17.325 192.774 -29.7275 -181.358
lowerback -5.79083 5.84501 2.49459
upperback -4.99189 7.41401 0.24322
thorax -1.64173 3.52651 -0.797246
lowerneck -4.80677 -10.8857 -17.2425
upperneck 29.5396 -20.2933 12.9324
head 14.0167 -10.4964 4.69965
rclavicle 5.12864e-014 0
rhumerus 3.8378 0.688852 -36.0739
rradius 45.1396
rwrist 18.8759
rhand -32.8174 -52.5119
rfingers 7.12502
rthumb -6.03797 -82.4059
lclavicle 5.12864e-014 0
lhumerus -44.5901 20.4141 -7.51273
lradius 40.2743
lwrist 29.737
lhand -44.9073 -34.422
lfingers 7.12502
lthumb -17.6944 -5.20714
rfemur -37.0093 7.53334 1.22416
rtibia 39.1128
rfoot -12.9637 -18.2405
rtoes -23.4394
lfemur -25.2447 -4.59644 -16.8175
ltibia 40.8177
lfoot -28.884 7.92132
ltoes -9.92057
35
root -5.54526 16.5822 17.3628 194.375 -27.4685 -180.995
lowerback -6.41219 6.52203 3.3282
upperback -5.39803 8.2046 0.128392
thorax -1.56853 3.8685 -1.26989
lowerneck -5.05752 -10.9834 -17.534
upperneck 29.585 -20.4946 13.1697
head 14.2055 -10.5777 4.77802
rclavicle -3.42904e-014 -1.19271e-014
rhumerus 4.74298 0.307498 -36.6678
rradius 43.8248
rwrist 18.8479
rhand -32.7553 -52.3289
rfingers 7.12502
rthumb -5.97799 -82.2246
lclavicle -3.42904e-014 -1.19271e-014
lhumerus -44.0191 20.3934 -7.72893
lradius 40.6593
lwrist 29.9702
lhand -45.2191 -33.1956
lfingers 7.12502
lthumb -17.9944 -4.00803
rfemur -40.0526 6.6354 1.15795
rtibia 39.1341
rfoot -12.1981 -16.5177
rtoes -24.3983
lfemur -26.99 -4.14521 -16.9291
ltibia 40.8322
lfoot -28.2011 9.49261
ltoes -8.11051
36
root -5.54064 16.603 17.2979 193.594 -27.4098 -181.401
lowerback -5.36953 6.13283 3.04342
upperback -4.94387 7.79136 0.366459
thorax -1.7593 3.69901 -0.990213
lowerneck -5.37338 -10.9745 -17.8712
upperneck 29.7127 -20.5818 13.5099
head 14.4457 -10.6088 4.92701
rclavicle 9.81375e-014 3.10104e-014
rhumerus 4.75852 0.206816 -37.3329
rradius 43.2966
rwrist 18.9783
rhand -32.913 -52.9963
rfingers 7.12502
rthumb -6.13023 -82.8876
lclavicle 9.81375e-014 3.10104e-014
lhumerus -43.4523 19.7063 -7.88407
lradius 41.1508
lwrist 30.7321
lhand -45.1238 -35.045
lfingers 7.12502
lthumb -17.9028 -5.84904
rfemur -38.7374 7.07507 1.10801
rtibia 39.2289
rfoot -12.5449 -17.4661
rtoes -24.6348
lfemur -25.4629 -3.88233 -17.2887
ltibia 40.6016
lfoot -28.4184 9.37033
ltoes -8.04124
37
root -5.5485 16.6043 17.2762 193.9 -26.4548 -181.347
lowerback -5.02968 6.19512 3.43552
upperback -4.91009 7.87749 0.463766
thorax -1.87141 3.73083 -1.13323
lowerneck -5.74301 -10.9533 -17.9511
upperneck 29.7929 -20.4782 13.4781
head 14.546 -10.5494 4.92465
rclavicle 5.58523e-014 -1.27222e-014
rhumerus 4.68167 0.391203 -37.7999
rradius 42.9913
rwrist 18.9887
rhand -32.8541 -54.0002
rfingers 7.12502
rthumb -6.07338 -83.8931
lclavicle 5.58523e-014 -1.27222e-014
lhumerus -42.9682 19.8411 -8.40883
lradius 41.3224
lwrist 30.6311
lhand -44.6901 -36.6335
lfingers 7.12502
lthumb -17.4854 -7.39987
rfemur -39.4205 6.64509 1.26585
rtibia 39.285
rfoot -12.4793 -17.0449
rtoes -25.4764
lfemur -25.5137 -3.7694 -17.4043
ltibia 40.5278
lfoot -28.4113 10.1362
ltoes -7.44182
